<svg height="512pt" viewBox="0 -75 512.00011 512" width="512pt" xmlns="http://www.w3.org/2000/svg"><path d="m222.980469 28.171875 6.550781 57.042969h37.144531l6.546875-57.042969c1.726563-15.007813-10.011718-28.171875-25.121094-28.171875-15.109374 0-26.84375 13.164062-25.121093 28.171875zm0 0" fill="#b24e2f"/><path d="m492.980469 234.757812c-10.773438-4.886718-24.074219-10.054687-40.03125-14.796874-29.207031-8.683594-60.765625-14.082032-94.441407-16.210938l-25.835937 86.691406c29.105469.488282 60.121094 3.71875 89.796875 11.859375 11.242188 3.085938 20.574219 6.398438 28.070312 9.472657 14.75 6.058593 31.722657 1.566406 41.558594-10.984376l13.003906-16.589843c12.945313-16.515625 6.984376-40.769531-12.121093-49.441407zm0 0" fill="#eedb00"/><path d="m1.9375 225.9375s12.988281-65.226562 98.378906-74.472656c.542969.542968 0 76.59375 0 76.59375zm0 0" fill="#eedb00"/><path d="m348.433594 41.90625c-25.914063-3.796875-51.5625 4.445312-73.75 21.460938-15.628906 11.988281-37.535156 11.988281-53.164063 0-22.1875-17.015626-47.832031-25.257813-73.75-21.460938-63.859375 9.359375-105.171875 88.269531-92.28125 176.253906 12.894531 87.984375 75.117188 151.722656 138.976563 142.363282 13.0625-1.914063 25.183594-6.742188 36.085937-13.964844 10.664063-7.0625 24.4375-7.0625 35.097657 0 10.90625 7.222656 23.027343 12.050781 36.089843 13.964844 63.859375 9.359374 126.082031-54.378907 138.972657-142.363282 12.898437-87.984375-28.417969-166.894531-92.277344-176.253906zm0 0" fill="#fb695b"/><path d="m344.933594 280.636719s-183.695313-57.472657-182.710938-59.394531c-24.066406-103.972657 15.4375-153.160157 37.019532-171.414063-16.367188-7.523437-33.855469-10.503906-51.472657-7.921875-63.855469 9.359375-105.171875 88.269531-92.277343 176.253906 12.890624 87.984375 75.113281 151.726563 138.972656 142.367188-1.097656-10.519532-.210938-19.960938 1.445312-27.855469 2.933594-13.980469 15.492188-23.925781 29.765625-23.355469 72.167969 2.871094 119.257813-28.679687 119.257813-28.679687zm0 0" fill="#f54432"/><path d="m23.242188 275.578125-15.320313-17.570313c-14.300781-16.40625-8.507813-42 11.480469-50.609374 9.050781-3.898438 19.871094-7.847657 32.597656-11.414063 55.132812-15.464844 123.023438-18.085937 201.777344-7.785156 44.054687 5.761719 109.082031 9.195312 168.691406-7.15625 11.242188-3.082031 20.574219-6.394531 28.070312-9.472657 14.75-6.054687 31.722657-1.5625 41.558594 10.988282l13.003906 16.585937c12.945313 16.519531 6.984376 40.773438-12.121093 49.441407-10.773438 4.886718-24.074219 10.054687-40.03125 14.800781-60.707031 18.042969-131.535157 21.957031-210.523438 11.625-78.28125-10.234375-129.742187-3.871094-159.125 3.269531-9.234375 2.246094-16.804687 4.628906-22.878906 6.863281-13.167969 4.851563-27.960937 1.011719-37.179687-9.566406zm0 0" fill="#f9ee80"/><g fill="#516980"><path d="m68.144531 248.765625c-4.265625 0-7.722656 3.460937-7.722656 7.726563v28.652343c4.355469-1.605469 9.496094-3.285156 15.449219-4.933593v-23.71875c0-4.265626-3.457032-7.726563-7.726563-7.726563zm0 0"/><path d="m118.726562 237.582031c-4.269531 0-7.726562 3.457031-7.726562 7.726563v27.808594c4.832031-.660157 9.972656-1.253907 15.453125-1.757813v-26.050781c0-4.269532-3.460937-7.726563-7.726563-7.726563zm0 0"/><path d="m169.949219 231.714844c-4.269531 0-7.726563 3.457031-7.726563 7.726562v30.234375c4.96875-.03125 10.113282.011719 15.453125.144531v-30.378906c0-4.269531-3.460937-7.726562-7.726562-7.726562zm0 0"/><path d="m221.171875 235.148438c-4.269531 0-7.726563 3.460937-7.726563 7.726562v28.96875c5.019532.4375 10.167969.945312 15.453126 1.53125v-30.5c0-4.265625-3.460938-7.726562-7.726563-7.726562zm0 0"/><path d="m272.394531 242.578125c-4.269531 0-7.726562 3.460937-7.726562 7.726563v27.261718c5.1875.511719 10.335937.960938 15.453125 1.34375v-28.605468c0-4.265626-3.460938-7.726563-7.726563-7.726563zm0 0"/><path d="m323.617188 246.386719c-4.269532 0-7.726563 3.457031-7.726563 7.726562v26.449219c5.195313.082031 10.34375.097656 15.453125.039062v-26.492187c0-4.265625-3.460938-7.722656-7.726562-7.722656zm0 0"/><path d="m374.839844 242.578125c-4.269532 0-7.726563 3.460937-7.726563 7.726563v28.683593c5.203125-.421875 10.351563-.921875 15.453125-1.5v-27.183593c0-4.265626-3.460937-7.726563-7.726562-7.726563zm0 0"/><path d="m426.0625 235.148438c-4.269531 0-7.726562 3.460937-7.726562 7.726562v29.050781c5.214843-1.039062 10.363281-2.167969 15.453124-3.394531v-25.65625c0-4.265625-3.460937-7.726562-7.726562-7.726562zm0 0"/><path d="m477.285156 217.3125c-4.269531 0-7.726562 3.457031-7.726562 7.726562v32.949219c5.558594-1.96875 10.707031-3.960937 15.453125-5.9375v-27.011719c0-4.269531-3.460938-7.726562-7.726563-7.726562zm0 0"/></g><path d="m182.148438 137.921875c0-13.582031-13.824219-24.589844-30.878907-24.589844-17.054687 0-30.878906 11.007813-30.878906 24.589844s13.824219 24.589844 30.878906 24.589844c17.054688 0 30.878907-11.007813 30.878907-24.589844zm0 0" fill="#fdb2db"/><path d="m375.8125 137.921875c0-13.582031-13.824219-24.589844-30.878906-24.589844-17.050782 0-30.875 11.007813-30.875 24.589844s13.824218 24.589844 30.875 24.589844c17.054687 0 30.878906-11.007813 30.878906-24.589844zm0 0" fill="#fdb2db"/><path d="m248.101562 133.929688c-10 0-20-3.238282-28.34375-9.710938-3.371093-2.613281-3.984374-7.46875-1.371093-10.839844s7.46875-3.984375 10.839843-1.371094c11.113282 8.621094 26.636719 8.621094 37.746094 0 3.371094-2.613281 8.226563-2 10.839844 1.371094 2.617188 3.371094 2.003906 8.226563-1.367188 10.839844-8.34375 6.472656-18.34375 9.710938-28.34375 9.710938zm0 0" fill="#454545"/><path d="m170.289062 119.105469c-1.730468-2.539063-4.253906-2.847657-5.277343-2.847657-1.023438 0-3.589844.28125-5.277344 2.847657-2.34375 3.566406-7.136719 4.558593-10.699219 2.21875-3.566406-2.34375-4.558594-7.136719-2.21875-10.703125 4.039063-6.144532 10.839844-9.816406 18.195313-9.816406s14.152343 3.671874 18.191406 9.816406c2.34375 3.566406 1.351563 8.359375-2.214844 10.703125-1.308593.855469-7.089843 3.082031-10.699219-2.21875zm0 0" fill="#454545"/><path d="m336.46875 119.105469c-1.730469-2.539063-4.25-2.847657-5.277344-2.847657-1.023437 0-3.585937.28125-5.273437 2.847657-2.34375 3.566406-7.136719 4.558593-10.703125 2.21875-3.566406-2.34375-4.554688-7.136719-2.214844-10.703125 4.039062-6.144532 10.839844-9.816406 18.195312-9.816406 7.351563 0 14.152344 3.671874 18.191407 9.816406 2.34375 3.566406 1.351562 8.359375-2.214844 10.703125-1.308594.855469-7.089844 3.082031-10.703125-2.21875zm0 0" fill="#454545"/></svg>